# xmcd
#
# Track frame offsets:
#	150
#	11337
#	23344
#	35984
#	47852
#	59905
#	72208
#	83939
#	97539
#	110123
#	122286
#	134538
#	146874
#	159043
#	170776
#	182976
#	194354
#	205306
#	218890
#	231750
#	243681
#	255644
#	267297
#	279613
#	292848
#
# Disc length: 4062 seconds
#
# Revision: 1
# Processed by: cddbd v1.5.2PL0 Copyright (c) Steve Scherf et al.
# Submitted via: audiograbber 1.83.01
#
DISCID=780fdc19
DTITLE=Various Artist - Bullet Records Rhythm and Blues
DYEAR=2007
DGENRE=Rhythm and Blues
TTITLE0=Wynonie Harris - Dig This Boogie
TTITLE1=Wynonie Harris - Lightning Struck The Poorhouse
TTITLE2=Wynonie Harris - My Baby's Barrel House
TTITLE3=Wynonie Harris - Drinkin' By Myself
TTITLE4=Max Bailey - Brown Skin Woman Blues
TTITLE5=Max Bailey - My Baby's Blues
TTITLE6=Max Bailey - Teardrops Are Falling
TTITLE7=Max Bailey - Drive Soldiers Drive
TTITLE8=Sherman Williams - Sherman's Boogie
TTITLE9=Sherman Williams - I'm Lucky With My Brown Gal
TTITLE10=Sherman Williams - Baby Don't You Want To Go
TTITLE11=Sherman Williams - My Flamin' Gal
TTITLE12=Sherman Williams - Baby Please Don't Go
TTITLE13=Sherman Williams - Ooh Wee Baby Gee
TTITLE14=Tuff Green - Let's Go To The Liquor Store
TTITLE15=Red Calhoun - Here Comes The Man With The Gin
TTITLE16=Bobby Plater Orchestra - Gonna Bring My Baby Back
TTITLE17=Bobby Plater Orchestra - Beer Bottle Boogie
TTITLE18=Tucker Coles - Don't Get Excited
TTITLE19=Tucker Coles - TC Blues
TTITLE20=Dusty Brooks - Whoa Mule
TTITLE21=Dusty Brooks - Chili Dogs
TTITLE22=Doc Wiley - The Doctor's Jump
TTITLE23=Doc Wiley - Play Your Hand
TTITLE24=The Five Bars - I'm All Dressed Up With A Broken Hear
EXTD=
EXTT0=
EXTT1=
EXTT2=
EXTT3=
EXTT4=
EXTT5=
EXTT6=
EXTT7=
EXTT8=
EXTT9=
EXTT10=
EXTT11=
EXTT12=
EXTT13=
EXTT14=
EXTT15=
EXTT16=
EXTT17=
EXTT18=
EXTT19=
EXTT20=
EXTT21=
EXTT22=
EXTT23=
EXTT24=
PLAYORDER=
